<svg width="183" height="95" xmlns="http://www.w3.org/2000/svg" xmlns:undefined="http://sodipodi.sourceforge.net/DTD/sodipodi-0.dtd" xmlns:undefined="http://www.inkscape.org/namespaces/inkscape" version="1.1">

 <g>
  <title>Layer 1</title>
  <g id="layer1"  >
   <text font-size="25.4px" font-family="Orbitron" stroke-width="0.26458" fill="#000000" id="text1485" y="79.57018" x="8.85572" xml:space="preserve">
    <tspan font-style="normal" font-weight="900" font-size="25.4px" font-family="Orbitron" stroke-width="0.26458" fill="#000000"  y="79.57018" x="8.85572" id="tspan1483">C
     <tspan font-size="22.5778px" fill="#000000" id="tspan26468">reative Kiwi</tspan></tspan>
   </text>
   <g transform="matrix(0.749801 0 0 0.734198 -38.4188 20.595)" id="layer1-5" >
    <path fill="#000000" fill-rule="evenodd" stroke-width="0.21193" d="m99.31168,30.40882c0,0 -4.75369,11.09687 -20.60635,14.26528l1.29703,8.14252c2.95225,0.32425 7.08496,1.3161 6.71619,5.24959c-0.97489,-1.62765 -2.53473,-1.98158 -4.26623,-2.36729c0.07842,0.98125 0.0975,1.95404 0.02547,2.93316c-0.92827,-1.71242 -2.25921,-2.78905 -3.77243,-3.00521c-0.91555,-0.1293 -2.01337,0.11661 -2.26981,-0.32852c-0.2734,-0.4726 0.61249,-0.62731 0.61249,-1.11264c0,-1.22498 -0.43235,-5.98078 -2.52201,-8.21457c0,0 -4.82786,-0.5044 -5.47639,4.25139c-0.64851,4.75581 0.72059,5.33227 1.3691,5.6205c2.27618,1.06391 6.65685,1.12325 7.83944,3.7915c-1.86078,-0.47473 -10.57763,-0.40478 -5.67771,-0.69303c6.5839,3.41548 8.93281,-1.41551 -4.89992,0.28825c-1.0194,-0.0975 -2.18716,0.17802 -2.47115,-0.31156c-0.21617,-0.37512 1.1614,-0.75448 1.31823,-2.28253c0.28823,-2.81025 -0.57646,-5.62048 -4.03523,-9.0072c-3.45664,-3.3867 -8.50279,-4.60744 -9.86976,-13.2268c-1.51745,-9.55186 0.31789,-14.74214 4.6244,-18.93631c4.31497,-4.19884 13.24376,-6.67296 18.4319,-6.81707c5.18815,-0.14412 8.64691,0.43234 13.97918,3.02642c5.33222,2.59322 5.90868,5.76376 10.0859,5.33141c10.10926,-1.49413 13.66551,1.2271 14.41152,11.02481l-0.0721,4.46757c0,0 6.35378,7.47704 7.27781,17.86816c0,0 0.54467,3.05398 -0.31789,4.34677c-1.49202,-5.18814 -3.2426,-14.23137 -9.56036,-20.65086c0,0 -6.52121,0.91556 -12.17137,-3.65373l0.00005,-0.00001z"  id="path2233"/>
    <g transform="matrix(0.0622475 0 0 0.0583299 82.977 35.0793)" id="g6398">
     <g transform="matrix(0.89758 0 0 1 36.715 -59.83)" id="g6400">
      <path d="m586.17658,-676.16242a219.92675,201.2276 0 1 1 0,-0.09225" fill="#ffff02" id="path6402"/>
      <path  fill="none" stroke-width="38.849" stroke-linecap="round" stroke="#000000" d="m430.63241,-491.44618c42.42,-17.56 135.95,-74.04 136.41,-189.54c0.1084,-27.98198 -5.87332,-54.29331 -16.5076,-78.0771c-33.51121,-74.9485 -113.22387,-124.79767 -194.1524,-122.7329c-104.98,2.71 -217.69,66.19 -218.48,200.37c-0.79,133.52 121.3,198.68 312.46,244.17c114.33,27.81 -276.09,24.69 -230,37.91c56.84,16.3 319.52,31.54 240.4,49.99c-76.1,17.74 -198.01,8.9 -241.7,30.54c-39.18,19.41 426.59,17.44 189.69,60.57" stroke-linejoin="round" id="path6404"/>
      <path fill="none" stroke-width="38.301" stroke-linecap="round" stroke="#000000" d="m271.33241,-718.89618c49.68,21.43 89.4,54.29 166.5,-6.8" id="path6406"/>
      <path fill="none" stroke-width="38.242" stroke-linecap="round" stroke="#000000" d="m75.35241,-882.85618l47.64,52.51" id="path6408"/>
      <path d="m229.94241,-992.71618c-0.32,0 -0.64,0 0,0z" fill="none" stroke-width="0.73543px" stroke="#000000" id="path6410"/>
      <path fill="none" stroke-width="38.242" stroke-linecap="round" stroke="#000000" d="m212.44241,-991.74618l23.34,57.36" id="path6412"/>
      <path  fill="none" stroke-width="38.242" stroke-linecap="round" stroke="#000000" d="m441.90241,-1010.21618l-7.1261,32.07006l-6.4839,29.17994" id="path6414"/>
      <path fill="none" stroke-width="38.242" stroke-linecap="round" stroke="#000000" d="m657.75241,-914.93618l-55.42,43.75" id="path6416"/>
     </g>
     <path d="m340.8159,-853.8979a46.55189,51.29927 0 1 1 0,-0.0196" fill="#ffffff" id="path6418"/>
    </g>
   </g>
   <rect stroke-width="0.34659" y="61.28471" x="27.81288" height="3.95901" width="45.53191" id="rect18979"/>
   <rect fill="none" stroke-width="0.26458" y="63.64252" x="6.67998" height="1.55029" width="16.74316" id="rect19740"/>
   <rect fill="none" stroke-width="0.26458" y="64.366" x="24.17245" height="1.03353" width="5.60689" id="rect19766"/>
   <circle fill="#000000" stroke="#000000" stroke-width="0.26458" r="0.02753" cy="19.66589" cx="100.65357" id="path35024"/>
   <text font-weight="900" font-size="8.46667px" font-family="Orbitron" stroke-width="0.26458" fill="#d45500" id="text38567" y="88.9123" x="20.86516" xml:space="preserve">
    <tspan stroke-width="0.26458" fill="#d45500" y="88.9123" x="20.86516" id="tspan38565" >Thinking outside the box</tspan>
   </text>
  </g>
 </g>
</svg>