<?xml version="1.0" encoding="UTF-8" standalone="no"?>
<svg
   xmlns:dc="http://purl.org/dc/elements/1.1/"
   xmlns:cc="http://creativecommons.org/ns#"
   xmlns:rdf="http://www.w3.org/1999/02/22-rdf-syntax-ns#"
   xmlns:svg="http://www.w3.org/2000/svg"
   xmlns="http://www.w3.org/2000/svg"
   xmlns:sodipodi="http://sodipodi.sourceforge.net/DTD/sodipodi-0.dtd"
   xmlns:inkscape="http://www.inkscape.org/namespaces/inkscape"
   width="70.98394mm"
   height="90mm"
   viewBox="0 0 70.98394 90"
   version="1.1"
   id="svg8"
   sodipodi:docname="drawing.svg"
   inkscape:version="1.0.2 (e86c870879, 2021-01-15, custom)">
  <defs
     id="defs2" />
  <sodipodi:namedview
     id="base"
     pagecolor="#ffffff"
     bordercolor="#666666"
     borderopacity="1.0"
     inkscape:pageopacity="0.0"
     inkscape:pageshadow="2"
     inkscape:zoom="0.35"
     inkscape:cx="1.9070839"
     inkscape:cy="-80.38193"
     inkscape:document-units="mm"
     inkscape:current-layer="layer1"
     inkscape:document-rotation="0"
     showgrid="false"
     inkscape:window-width="1267"
     inkscape:window-height="728"
     inkscape:window-x="78"
     inkscape:window-y="0"
     inkscape:window-maximized="0" />
  <metadata
     id="metadata5">
    <rdf:RDF>
      <cc:Work
         rdf:about="">
        <dc:format>image/svg+xml</dc:format>
        <dc:type
           rdf:resource="http://purl.org/dc/dcmitype/StillImage" />
      </cc:Work>
    </rdf:RDF>
  </metadata>
  <g
     inkscape:label="Layer 1"
     inkscape:groupmode="layer"
     id="layer1"
     transform="translate(-52.664375,-39.36005)">
    <path
       id="path2233"
       sodipodi:nodetypes="ccccccszscsccccssssssssccccccc"
       style="fill:#000000;fill-rule:evenodd;stroke-width:0.211933"
       d="m 99.879209,98.220575 c 0,0 -4.753685,11.096865 -20.606353,14.265275 l 1.297036,8.14252 c 2.952244,0.32425 7.084955,1.3161 6.716191,5.24959 -0.974897,-1.62765 -2.534732,-1.98158 -4.266236,-2.36729 0.07842,0.98125 0.0975,1.95404 0.02547,2.93316 -0.928266,-1.71242 -2.25921,-2.78905 -3.772423,-3.00521 -0.915556,-0.1293 -2.013373,0.11661 -2.269817,-0.32852 -0.273393,-0.4726 0.612494,-0.62731 0.612494,-1.11264 0,-1.22498 -0.432346,-5.98078 -2.522015,-8.21457 0,0 -4.827859,-0.5044 -5.476381,4.25139 -0.648515,4.75581 0.720581,5.33227 1.369095,5.6205 2.276176,1.06391 6.656848,1.12325 7.839444,3.7915 -1.86078,-0.47473 -3.759713,-0.62309 -5.677717,-0.69303 0.233127,0.86259 0.48957,1.71455 0.574341,2.6068 -1.008801,-0.50441 -3.240473,-2.10239 -5.474259,-2.31855 -1.019399,-0.0975 -2.18716,0.17802 -2.47115,-0.31156 -0.216169,-0.37512 1.161401,-0.75448 1.318231,-2.28253 0.288228,-2.81025 -0.576463,-5.62048 -4.035227,-9.0072 -3.456642,-3.3867 -8.502793,-4.60744 -9.869765,-13.2268 -1.517452,-9.551865 0.317896,-14.742136 4.624402,-18.936311 4.314972,-4.198838 13.243759,-6.672956 18.431904,-6.817072 5.188147,-0.144114 8.646911,0.432346 13.979173,3.02642 5.332221,2.593225 5.908684,5.763758 10.085903,5.331412 10.10926,-1.494133 13.66551,1.2271 14.41152,11.024811 l -0.0721,4.46757 c 0,0 6.35378,7.47704 7.27781,17.86816 0,0 0.54467,3.05398 -0.31789,4.34677 -1.49202,-5.18814 -3.2426,-14.23137 -9.56036,-20.65086 0,0 -6.52121,0.91556 -12.17137,-3.653735 z" />
    <g
       id="g6398"
       transform="matrix(0.06224755,0,0,0.05832986,82.976992,35.07928)">
      <g
         id="g6400"
         transform="matrix(0.89758,0,0,1,36.715,-59.83)">
        <path
           id="path6402"
           transform="matrix(2.7496,0,0,3.0749,-577.8,-680.5)"
           fill="#ffff02"
           d="m 427.02,379.49 a 79.985,65.442 0 1 1 0,-0.03" />
        <path
           id="path6404"
           stroke-linejoin="round"
           d="M 440.79,671.11 C 483.21,653.55 576.74,597.07 577.2,481.57 577.65,365.41 473.15,278.04 366.54,280.76 c -104.98,2.71 -217.69,66.19 -218.48,200.37 -0.79,133.52 121.3,198.68 312.46,244.17 114.33,27.81 -276.09,24.69 -230,37.91 56.84,16.3 319.52,31.54 240.4,49.99 -76.1,17.74 -198.01,8.9 -241.7,30.54 -39.18,19.41 426.59,17.44 189.69,60.57"
           stroke="#000000"
           stroke-linecap="round"
           stroke-width="38.849"
           fill="none" />
        <path
           id="path6406"
           d="m 281.49,443.66 c 49.68,21.43 89.4,54.29 166.5,-6.8"
           stroke="#000000"
           stroke-linecap="round"
           stroke-width="38.301"
           fill="none" />
        <path
           id="path6408"
           d="m 85.51,279.7 47.64,52.51"
           stroke="#000000"
           stroke-linecap="round"
           stroke-width="38.242"
           fill="none" />
        <path
           id="path6410"
           stroke="#000000"
           stroke-width="0.73543px"
           fill="none"
           d="m 240.1,169.84 c -0.32,0 -0.64,0 0,0 z" />
        <path
           id="path6412"
           d="m 222.6,170.81 23.34,57.36"
           stroke="#000000"
           stroke-linecap="round"
           stroke-width="38.242"
           fill="none" />
        <path
           id="path6414"
           d="m 452.06,152.34 -13.61,61.25"
           stroke="#000000"
           stroke-linecap="round"
           stroke-width="38.242"
           fill="none" />
        <path
           id="path6416"
           d="m 667.91,247.62 -55.42,43.75"
           stroke="#000000"
           stroke-linecap="round"
           stroke-width="38.242"
           fill="none" />
      </g>
      <path
         id="path6418"
         transform="matrix(1.6599,0,0,0.97991,-165.25,-228.45)"
         fill="#ffffff"
         d="m 310.37,548.12 a 28.045,52.351 0 1 1 0,-0.02" />
    </g>
  </g>
</svg>
